 <svg xmlns:xlink="http://www.w3.org/1999/xlink" viewBox="0 0 65 65" id="logo_0932cff8364fde0d028c4db4ca9ab22b">
    <g fill="#ee514a">
      <path d="M31,21.4L31,21.4c-4.7,0.5-8.6,3.3-10.6,7.4c-0.3,0.8,0,1.7,0.8,2.2c0.8,0.4,1.8,0.1,2.2-0.7c1.6-3.1,4.6-5.2,7.9-5.6   c0.9-0.1,1.6-0.9,1.5-1.8C32.7,22,31.9,21.3,31,21.4z"></path>
      <path d="M60.8,16.5C54.6,5.7,42.9-0.6,30.7,0.1c-6.7,0.4-13.2,2.8-18.4,7c-14,11-16.4,31.4-5.4,45.5c4.6,5.9,11.1,10,18.3,11.6   c13.9,3.2,28.3-3.1,35.4-15.5C66.4,38.8,66.4,26.5,60.8,16.5z M29.5,11.2H36c0.8,0,1.5,0.7,1.5,1.5s-0.6,1.5-1.5,1.5h-1.7   c0,0.8-0.7,1.5-1.6,1.5c-0.8,0-1.5-0.7-1.5-1.5h-1.7c-0.8,0-1.5-0.7-1.5-1.5S28.7,11.2,29.5,11.2z M32.8,18.3   c9.1,0,16.6,7.4,16.7,16.6H16.1C16.2,25.7,23.7,18.3,32.8,18.3z M53.3,44.3H12.2v-2.8c1.9,0,3.4-1.5,3.4-3.3H50   c0,1.8,1.5,3.3,3.4,3.3V44.3z"></path>
    </g>
  </svg>
